<svg width="800" height="800" xmlns="http://www.w3.org/2000/svg" xmlns:xlink="http://www.w3.org/1999/xlink"><defs><linearGradient x1="50%" y1="-18.768%" x2="68.638%" y2="82.414%" id="a"><stop stop-color="#C42C72" offset="0%"/><stop stop-color="#F76B1C" offset="100%"/></linearGradient><linearGradient x1="100%" y1="31.364%" x2="37.018%" y2="54.618%" id="c"><stop stop-color="#C42C72" offset="0%"/><stop stop-color="#F76B1C" offset="100%"/></linearGradient><linearGradient x1="50%" y1="103.59%" x2="50%" y2="11.107%" id="e"><stop stop-color="#FAD961" offset="0%"/><stop stop-color="#F76B1C" offset="100%"/></linearGradient><linearGradient x1="87.247%" y1="14.365%" x2="-54.708%" y2="146.643%" id="f"><stop stop-color="#5009C0" offset="0%"/><stop stop-color="#FF6351" offset="100%"/></linearGradient><linearGradient x1="99.988%" y1="0%" x2=".012%" y2="100%" id="g"><stop stop-color="#FFD53C" offset="0%"/><stop stop-color="#F76B1C" offset="100%"/></linearGradient><linearGradient x1="100%" y1="0%" x2="0%" y2="100%" id="h"><stop stop-color="#5009C0" offset="0%"/><stop stop-color="#FF6351" offset="100%"/></linearGradient><linearGradient x1="93.827%" y1="0%" x2="26.703%" y2="79.878%" id="i"><stop stop-color="#FFD53C" offset="0%"/><stop stop-color="#DD4B47" offset="100%"/></linearGradient><path d="M145.519 0c5.967 20.276 26.002 151.784-112.601 242.37-9.098 5.966-19.707-3.723-17.145-14.299C26.195 185.592 38.238 107.762.96 65.437L145.519 0z" id="b"/><path d="M244.19 4.533C223.949-1.445 92.44-21.447 1.81 117.123c-5.934 9.12 3.734 19.707 14.32 17.156 42.48-10.422 120.31-22.454 162.635 14.802L244.19 4.533z" id="d"/></defs><g fill="none" fill-rule="evenodd"><use fill="url(#a)" fill-rule="nonzero" xlink:href="#b" transform="translate(310.915 536.551)"/><use fill="url(#c)" fill-rule="nonzero" xlink:href="#d" transform="translate(17.86 337.689)"/><path d="M221.301 500.902c74.441 108.787 61.045 165.127-40.19 169.019a264.28 264.28 0 01-3.497.111l.002.02-.417-.01-.42.01.002-.02a264.28 264.28 0 01-3.497-.111c-101.234-3.892-114.63-60.232-40.19-169.019l44.103.595 44.104-.595z" fill="url(#e)" transform="rotate(45 163.174 616.491)"/><path d="M764.088 35.69c2.113-20.308-14.878-37.825-35.21-35.186-108.461 14.232-422.486 86.326-559.6 452.156-6.515 17.408-1.72 37.07 11.386 50.186l78.125 78.137a49.825 49.825 0 0051.03 12.23C686.532 466.936 752.494 146.76 764.088 35.69zM425.222 337.06c-26.448-26.436-34.365-66.202-20.058-100.752 14.306-34.55 48.018-57.078 85.413-57.078 37.394 0 71.106 22.529 85.412 57.078 14.307 34.55 6.39 74.316-20.058 100.752-36.096 36.09-94.613 36.09-130.71 0z" fill="url(#f)" fill-rule="nonzero" transform="translate(17.823 19)"/><path d="M165.762 612.142a11.693 11.693 0 01-15.688-15.644c60.85-124.809 158.189-183.765 205.638-206.252a12.196 12.196 0 0116.236 16.269c-22.422 47.427-81.333 144.778-206.186 205.627z" fill="url(#g)" fill-rule="nonzero" transform="translate(17.823 19)"/><path d="M490.557 365.87c-44.911-.038-83.543-31.793-92.272-75.848-8.73-44.055 14.873-88.143 56.377-105.304 41.503-17.162 89.35-2.62 114.283 34.735 24.934 37.354 20.011 87.12-11.757 118.865a93.967 93.967 0 01-66.63 27.553zm0-159.709c-31.259.017-58.154 22.111-64.238 52.772-6.085 30.662 10.336 61.351 39.22 73.302 28.885 11.952 62.189 1.836 79.547-24.16 17.359-25.997 13.937-60.635-8.172-82.733a65.333 65.333 0 00-46.357-19.18z" fill="url(#h)" fill-rule="nonzero" transform="translate(17.823 19)"/><path d="M728.868.515a678.444 678.444 0 00-81.312 15.907c6.86 54.04 47.419 97.686 100.81 108.485a669.117 669.117 0 0015.722-89.216c2.113-20.309-14.878-37.826-35.22-35.176z" fill="url(#i)" fill-rule="nonzero" transform="translate(17.823 19)"/></g></svg>