<svg width="800" height="800" xmlns="http://www.w3.org/2000/svg"><defs><linearGradient x1="50%" y1="0%" x2="50%" y2="142.952%" id="a"><stop stop-color="#5009C0" offset="0%"/><stop stop-color="#FF6351" offset="100%"/></linearGradient><linearGradient x1="50%" y1="0%" x2="50%" y2="100%" id="b"><stop stop-color="#FBF4FF" offset="0%"/><stop stop-color="#DFDCF6" offset="100%"/></linearGradient><linearGradient x1="50%" y1="0%" x2="50%" y2="202.441%" id="c"><stop stop-color="#5009C0" offset="0%"/><stop stop-color="#FF6351" offset="100%"/></linearGradient><linearGradient x1="236.604%" y1="76.088%" x2="236.604%" y2="0%" id="d"><stop stop-color="#C42C72" offset="0%"/><stop stop-color="#F76B1C" offset="100%"/></linearGradient><linearGradient x1="236.604%" y1="76.088%" x2="236.604%" y2="0%" id="e"><stop stop-color="#C42C72" offset="0%"/><stop stop-color="#F76B1C" offset="100%"/></linearGradient><linearGradient x1="236.604%" y1="76.088%" x2="236.604%" y2="0%" id="f"><stop stop-color="#C42C72" offset="0%"/><stop stop-color="#F76B1C" offset="100%"/></linearGradient><linearGradient x1="236.604%" y1="76.088%" x2="236.604%" y2="0%" id="g"><stop stop-color="#C42C72" offset="0%"/><stop stop-color="#F76B1C" offset="100%"/></linearGradient><linearGradient x1="236.604%" y1="76.088%" x2="236.604%" y2="0%" id="h"><stop stop-color="#C42C72" offset="0%"/><stop stop-color="#F76B1C" offset="100%"/></linearGradient><linearGradient x1="236.604%" y1="76.088%" x2="236.604%" y2="0%" id="i"><stop stop-color="#C42C72" offset="0%"/><stop stop-color="#F76B1C" offset="100%"/></linearGradient><linearGradient x1="100%" y1=".054%" x2="0%" y2="99.946%" id="j"><stop stop-color="#FFD53C" offset="0%"/><stop stop-color="#F76B1C" offset="100%"/></linearGradient></defs><g transform="translate(9.063 24)" fill="none" fill-rule="evenodd"><path d="M267.038 652.996v-38.274c-79.574-44.62-128.88-128.685-128.88-219.976 0-139.23 112.868-252.098 252.098-252.098 139.23 0 252.099 112.868 252.099 252.098 0 91.193-49.21 175.356-128.881 219.976v58.094" fill="url(#a)" fill-rule="nonzero"/><circle stroke="url(#b)" stroke-width="24" cx="388.356" cy="398.04" r="148.467"/><circle stroke="url(#b)" stroke-width="24" cx="388.356" cy="395.764" r="90.425"/><circle stroke="url(#b)" stroke-width="24" cx="388.356" cy="398.04" r="32.487"/><ellipse fill="url(#c)" fill-rule="nonzero" cx="390.256" cy="702.693" rx="87.58" ry="49.307"/><path d="M258.934 609.645h261.57v47.94c0 21.87-17.77 39.64-39.641 39.64H298.575c-21.87 0-39.64-17.77-39.64-39.64v-47.94z" fill="#9A2F91" fill-rule="nonzero"/><path d="M391.72 0h4.687c10.74 0 19.527 8.787 19.527 19.527v70.397c0 10.74-8.787 19.527-19.527 19.527h-4.687c-10.74 0-19.527-8.787-19.527-19.527V19.527C372.193 8.787 380.98 0 391.72 0z" fill="url(#d)" fill-rule="nonzero"/><path d="M646.065 93.634l3.612 3.027c8.3 6.932 9.373 19.234 2.441 27.533l-45.303 53.896c-6.933 8.299-19.235 9.373-27.534 2.44l-3.613-3.026c-8.299-6.932-9.373-19.234-2.44-27.534l45.303-53.895c6.932-8.3 19.332-9.373 27.534-2.441z" fill="url(#e)" fill-rule="nonzero"/><path d="M780.706 328.841l.781 4.687c1.855 10.642-5.175 20.797-15.817 22.652l-69.322 12.204c-10.643 1.855-20.797-5.174-22.652-15.817l-.781-4.686c-1.855-10.643 5.175-20.797 15.817-22.652l69.322-12.205c10.643-1.855 20.797 5.273 22.652 15.817z" fill="url(#f)" fill-rule="nonzero"/><path d="M732.669 595.683l-2.344 4.101c-5.37 9.373-17.379 12.497-26.654 7.127l-60.926-35.246c-9.373-5.37-12.497-17.38-7.127-26.655l2.343-4.101c5.37-9.373 17.38-12.498 26.655-7.128l60.925 35.247c9.373 5.37 12.498 17.282 7.128 26.655z" fill="url(#g)" fill-rule="nonzero"/><path d="M136.693 91.779l3.612-3.027c8.3-6.932 20.602-5.858 27.534 2.44l45.303 53.897c6.933 8.299 5.859 20.601-2.44 27.533l-3.613 3.027c-8.3 6.932-20.602 5.858-27.534-2.441l-45.303-53.896c-6.933-8.299-5.859-20.601 2.44-27.533z" fill="url(#e)" fill-rule="nonzero"/><path d="M.294 326.01l.78-4.687c1.856-10.642 12.01-17.672 22.653-15.817l69.322 12.205c10.642 1.855 17.672 12.01 15.817 22.652l-.781 4.686c-1.855 10.643-12.01 17.672-22.652 15.817l-69.322-12.204C5.566 346.709-1.561 336.652.294 326.01z" fill="url(#h)" fill-rule="nonzero"/><path d="M46.378 593.145l-2.343-4.101c-5.37-9.373-2.148-21.285 7.128-26.655l60.925-35.247c9.373-5.37 21.285-2.148 26.655 7.128l2.343 4.1c5.37 9.373 2.148 21.285-7.127 26.655l-60.926 35.247c-9.275 5.37-21.285 2.148-26.655-7.127z" fill="url(#i)" fill-rule="nonzero"/><path fill="url(#j)" fill-rule="nonzero" d="M585.205 235.23l-24.941-7.492-7.6-24.94-36.5 36.5 4.067 18.304-133.16 133.16-.856 10.917 10.812-.856 133.159-133.159 18.41 4.068z"/></g></svg>