<svg width="800" height="800" xmlns="http://www.w3.org/2000/svg"><defs><linearGradient x1="50%" y1="0%" x2="50%" y2="167.781%" id="a"><stop stop-color="#5009C0" offset="0%"/><stop stop-color="#FF6351" offset="100%"/></linearGradient><linearGradient x1="50%" y1="0%" x2="50%" y2="163.336%" id="b"><stop stop-color="#5009C0" offset="0%"/><stop stop-color="#FF6351" offset="100%"/></linearGradient><linearGradient x1="50%" y1="0%" x2="50%" y2="210.275%" id="c"><stop stop-color="#5009C0" offset="0%"/><stop stop-color="#FF6351" offset="100%"/></linearGradient><linearGradient x1="50%" y1="0%" x2="50%" y2="210.275%" id="d"><stop stop-color="#440AA0" offset="0%"/><stop stop-color="#FF6351" offset="100%"/></linearGradient><linearGradient x1="68.588%" y1="29.018%" x2="33.201%" y2="76.556%" id="e"><stop stop-color="#5009C0" offset="0%"/><stop stop-color="#FF6351" offset="100%"/></linearGradient><linearGradient x1="36.979%" y1="24.592%" x2="61.18%" y2="80.473%" id="f"><stop stop-color="#5009C0" offset="0%"/><stop stop-color="#FF6351" offset="100%"/></linearGradient><linearGradient x1="50%" y1="0%" x2="50%" y2="100%" id="g"><stop stop-color="#FAD961" offset="0%"/><stop stop-color="#F76B1C" offset="100%"/></linearGradient><linearGradient x1="68.805%" y1="-11.944%" x2="30.762%" y2="120.632%" id="h"><stop stop-color="#C42C72" offset="0%"/><stop stop-color="#F76B1C" offset="100%"/></linearGradient><linearGradient x1="50%" y1="0%" x2="50%" y2="100%" id="i"><stop stop-color="#FAD961" offset="0%"/><stop stop-color="#F76B1C" offset="100%"/></linearGradient><linearGradient x1="89.095%" y1="-42.001%" x2="37.167%" y2="136.089%" id="j"><stop stop-color="#5009C0" offset="0%"/><stop stop-color="#FF6351" offset="100%"/></linearGradient><linearGradient x1="100%" y1="0%" x2="37.018%" y2="62.39%" id="k"><stop stop-color="#C42C72" offset="0%"/><stop stop-color="#F76B1C" offset="100%"/></linearGradient><linearGradient x1="50%" y1="0%" x2="50%" y2="100%" id="l"><stop stop-color="#FAD961" offset="0%"/><stop stop-color="#F76B1C" offset="100%"/></linearGradient><linearGradient x1="50%" y1="-54.822%" x2="50%" y2="100%" id="m"><stop stop-color="#5009C0" offset="0%"/><stop stop-color="#FF6351" offset="100%"/></linearGradient></defs><g transform="translate(53.613 68)" fill="none" fill-rule="evenodd"><path fill="url(#a)" d="M64.034 207.042l260.937-51.76v153.147z"/><path fill="url(#b)" d="M324.97 155.282v135.004l336.71-83.244z"/><path fill="url(#c)" d="M64.034 207.042l298.823 60.298V635L64.034 558.16z"/><path fill="url(#d)" transform="matrix(-1 0 0 1 1024.538 0)" d="M362.857 207.042l298.824 60.298V635l-298.824-76.84z"/><path fill="url(#e)" d="M64.034 207.576L0 331.908l312.697 79.508 50.16-143.542z"/><path fill="url(#f)" d="M362.857 267.874l45.357 138.74 302.025-82.177-48.558-117.395z"/><path d="M248.13 202.24c-8.591-49.831-44.89-95.366-108.897-136.606-10.31 10.31-26.42 19.331-39.95 32.863 57.992 15.035 107.608 49.616 148.847 103.742z" fill="url(#g)"/><path d="M375.13 96.05c10.139-9.071 17.61-6.937 21.878 7.471 4.27 14.408-12.806 59.231-36.819 81.643-10.139-29.882 4.803-80.042 14.941-89.114z" fill="url(#h)"/><path d="M462.11 208.11c41.064-90.897 73.593-133.808 97.586-128.733 22.148 4.153 22.148 16.611 9.69 30.453-8.306 9.228-44.064 41.988-107.277 98.28z" fill="url(#i)"/><circle stroke="url(#j)" stroke-width="12" cx="478.118" cy="25.613" r="25.613"/><path d="M74.242 115.794V132.8h17.006v4.41H74.242v17.005h-4.409v-17.006H52.828V132.8h17.005v-17.006h4.41z" fill="url(#k)" transform="rotate(-27 72.038 135.004)"/><path d="M612.125 141.408v17.005h17.005v4.41l-17.006-.001v17.006h-4.408v-17.006H590.71v-4.409h17.005v-17.005h4.41z" fill="url(#l)" transform="rotate(32 609.92 160.618)"/><path d="M237.045 35.882l33.126 33.125-6.625 6.625-33.126-33.125 6.625-6.625zm97.44 0l6.625 6.625-33.126 33.125-6.625-6.625 33.125-33.125zM290.67 22.27v46.846h-9.37V22.271h9.37z" fill="url(#m)" transform="rotate(-18 285.765 48.951)"/></g></svg>