<?xml version="1.0" encoding="utf-8"?>
<!-- Generator: Adobe Illustrator 24.0.0, SVG Export Plug-In . SVG Version: 6.00 Build 0)  -->
<svg version="1.1" id="球_拷贝_2" xmlns="http://www.w3.org/2000/svg" xmlns:xlink="http://www.w3.org/1999/xlink" x="0px"
	 y="0px" viewBox="0 0 136.5 98" style="enable-background:new 0 0 136.5 98;" xml:space="preserve">
<style type="text/css">
	.st0{fill:url(#椭圆_2_2_);}
	.st1{fill-rule:evenodd;clip-rule:evenodd;fill:#FAF8D4;fill-opacity:7.000000e-02;}
	.st2{fill-rule:evenodd;clip-rule:evenodd;fill:url(#SVGID_1_);fill-opacity:0.72;}
	.st3{fill-rule:evenodd;clip-rule:evenodd;fill:url(#SVGID_2_);}
</style>
<linearGradient id="椭圆_2_2_" gradientUnits="userSpaceOnUse" x1="48.3484" y1="12.31" x2="88.9024" y2="91.9" gradientTransform="matrix(1 0 0 -1 0 100)">
	<stop  offset="0" style="stop-color:#0422E0"/>
	<stop  offset="0.211" style="stop-color:#7228B0"/>
	<stop  offset="0.612" style="stop-color:#F381E0"/>
	<stop  offset="0.919" style="stop-color:#F6FACC"/>
	<stop  offset="1" style="stop-color:#F6FACC"/>
</linearGradient>
<circle id="椭圆_2_1_" class="st0" cx="68.6" cy="47.9" r="39.8"/>
<path id="椭圆_17" class="st1" d="M70,7.5c19.8,0,35.8,14,35.8,31.3S89.8,70.1,70,70.1s-35.8-14-35.8-31.3S50.2,7.5,70,7.5z"/>
<linearGradient id="SVGID_1_" gradientUnits="userSpaceOnUse" x1="69.6548" y1="91.7479" x2="56.8244" y2="10.7442">
	<stop  offset="0" style="stop-color:#DA69E3"/>
	<stop  offset="0.301" style="stop-color:#DA69E3"/>
	<stop  offset="0.663" style="stop-color:#E9489F"/>
	<stop  offset="1" style="stop-color:#9F35D0"/>
</linearGradient>
<path class="st2" d="M68.2,87.7c13.5,0,25.4-6.7,32.6-17c0-0.5,0.1-0.7,0.1-0.7s-18.2,9.2-28.1,0c-1.7-1.9-3.1-4-4.2-6.3
	c0,0-3.7-15.4-23.9-15.1c0,0-17.9-3.4,1.3-33.4c0,0-0.2,0-0.5-0.1c-10.4,7.2-17.3,19.2-17.3,32.8C28.4,69.9,46.3,87.7,68.2,87.7z"/>
<linearGradient id="SVGID_2_" gradientUnits="userSpaceOnUse" x1="67.3659" y1="26.8442" x2="67.3659" y2="52.2694">
	<stop  offset="0" style="stop-color:#E877AE"/>
	<stop  offset="1" style="stop-color:#7C73F3"/>
</linearGradient>
<path class="st3" d="M102.5,26.8c0.1,0.5,1.1,1.8,1.4,2.6c16.1,3,26.2,8.2,26.2,13.8c0,9.3-28.1,16.8-62.7,16.8S4.7,52.6,4.7,43.3
	c0-5.7,12-10.3,28.1-13.3c0.4-1,1.2-2.1,1.5-2.8c-19,3.2-35.1,9.6-35.1,16.1c0,10.1,30.6,18.3,68.3,18.3s68.3-8.2,68.3-18.3
	C135.6,36.8,121.5,30.1,102.5,26.8z"/>
</svg>
